# Blender v2.93.0 OBJ File: 'Room2.blend'
# www.blender.org
mtllib Room2.mtl
o Plane.001
v -47.906277 0.000000 53.454716
v 59.003155 0.000000 53.454716
v -47.906277 0.000000 -53.454716
v 59.003155 0.000000 -53.454716
vt -15.599222 -15.599222
vt 16.599222 -15.599222
vt 16.599222 16.599222
vt -15.599222 16.599222
vn 0.0000 1.0000 0.0000
g Plane.001_Plane.001_Material.025
usemtl Material.025
s off
f 1/1/1 2/2/1 4/3/1 3/4/1
o Cube.001_Cube.002
v 57.911087 -1.095078 -54.196987
v 57.911087 36.847824 -54.196987
v 55.975239 -1.095078 54.113407
v 55.975239 36.847824 54.113407
v 57.801296 -1.095078 -54.198948
v 57.801296 36.847824 -54.198948
v 55.865448 -1.095078 54.111446
v 55.865448 36.847824 54.111446
vt -26.385777 6.828899
vt -26.220467 -6.572495
vt -12.819074 -6.407186
vt -12.984381 6.994208
vt 0.582323 -6.241878
vt 0.417015 7.159517
vt 13.983719 -6.076569
vt 13.818411 7.324825
vt 27.385113 -5.911260
vt 27.219807 7.490135
vt 0.251707 20.560905
vt 13.653100 20.726215
vt 0.747631 -19.643269
vt 14.149027 -19.477962
vn 0.9998 0.0000 0.0179
vn -0.0179 0.0000 0.9998
vn -0.9998 0.0000 -0.0179
vn 0.0179 0.0000 -0.9998
vn 0.0000 -1.0000 -0.0000
vn 0.0000 1.0000 -0.0000
g Cube.001_Cube.002_Material.001
usemtl Material.001
s off
f 5/5/2 6/6/2 8/7/2 7/8/2
f 7/8/3 8/7/3 12/9/3 11/10/3
f 11/10/4 12/9/4 10/11/4 9/12/4
f 9/12/5 10/11/5 6/13/5 5/14/5
f 7/15/6 11/10/6 9/12/6 5/16/6
f 12/9/7 8/17/7 6/18/7 10/11/7
o Cube.003_Cube.004
v 59.860947 -1.095078 52.245136
v 59.860947 36.847824 52.245136
v -48.543579 -1.095078 53.306702
v -48.543579 36.847824 53.306702
v 59.859871 -1.095078 52.135422
v 59.859871 36.847824 52.135422
v -48.544655 -1.095078 53.196987
v -48.544655 36.847824 53.196987
vt -26.385777 6.828899
vt -26.220467 -6.572495
vt -12.819074 -6.407186
vt -12.984381 6.994208
vt 0.582323 -6.241878
vt 0.417015 7.159517
vt 13.983719 -6.076569
vt 13.818411 7.324825
vt 27.385113 -5.911260
vt 27.219807 7.490135
vt 0.251707 20.560905
vt 13.653100 20.726215
vt 0.747631 -19.643269
vt 14.149027 -19.477962
vn 0.0098 0.0000 1.0000
vn -1.0000 0.0000 0.0098
vn -0.0098 0.0000 -1.0000
vn 1.0000 0.0000 -0.0098
vn 0.0000 -1.0000 0.0000
vn 0.0000 1.0000 0.0000
g Cube.003_Cube.004_Material.010
usemtl Material.010
s off
f 13/19/8 14/20/8 16/21/8 15/22/8
f 15/22/9 16/21/9 20/23/9 19/24/9
f 19/24/10 20/23/10 18/25/10 17/26/10
f 17/26/11 18/25/11 14/27/11 13/28/11
f 15/29/12 19/24/12 17/26/12 13/30/12
f 20/23/13 16/31/13 14/32/13 18/25/13
o Plane.002
v 59.329739 36.250240 53.781548
v -48.232861 36.578785 53.781548
v 59.329739 36.250240 -53.781548
v -48.232861 36.578785 -53.781548
vt -6.962162 -6.962162
vt 7.962162 -6.962162
vt 7.962162 7.962162
vt -6.962162 7.962162
vn -0.0031 -1.0000 0.0000
g Plane.002_Plane.002_Material.016
usemtl Material.016
s off
f 21/33/14 22/34/14 24/35/14 23/36/14
o Cube.002_Cube.013
v 59.860947 -1.095078 -52.733776
v 59.860947 36.847824 -52.733776
v -48.543579 -1.095078 -51.672211
v -48.543579 36.847824 -51.672211
v 59.859871 -1.095078 -52.843491
v 59.859871 36.847824 -52.843491
v -48.544655 -1.095078 -51.781925
v -48.544655 36.847824 -51.781925
vt -26.385777 6.828899
vt -26.220467 -6.572495
vt -12.819074 -6.407186
vt -12.984381 6.994208
vt 0.582323 -6.241878
vt 0.417015 7.159517
vt 13.983719 -6.076569
vt 13.818411 7.324825
vt 27.385113 -5.911260
vt 27.219807 7.490135
vt 0.251707 20.560905
vt 13.653100 20.726215
vt 0.747631 -19.643269
vt 14.149027 -19.477962
vn 0.0098 0.0000 1.0000
vn -1.0000 0.0000 0.0098
vn -0.0098 0.0000 -1.0000
vn 1.0000 0.0000 -0.0098
vn 0.0000 -1.0000 0.0000
vn 0.0000 1.0000 0.0000
g Cube.002_Cube.013_Material.026
usemtl Material.026
s off
f 25/37/15 26/38/15 28/39/15 27/40/15
f 27/40/16 28/39/16 32/41/16 31/42/16
f 31/42/17 32/41/17 30/43/17 29/44/17
f 29/44/18 30/43/18 26/45/18 25/46/18
f 27/47/19 31/42/19 29/44/19 25/48/19
f 32/41/20 28/49/20 26/50/20 30/43/20
o Cube.004_Cube.014
v -45.507053 -1.095078 -54.196987
v -45.507053 36.847824 -54.196987
v -47.442902 -1.095078 54.113407
v -47.442902 36.847824 54.113407
v -45.616844 -1.095078 -54.198948
v -45.616844 36.847824 -54.198948
v -47.552692 -1.095078 54.111446
v -47.552692 36.847824 54.111446
vt -26.385777 6.828899
vt -26.220467 -6.572495
vt -12.819074 -6.407186
vt -12.984381 6.994208
vt 0.582323 -6.241878
vt 0.417015 7.159517
vt 13.983719 -6.076569
vt 13.818411 7.324825
vt 27.385113 -5.911260
vt 27.219807 7.490135
vt 0.251707 20.560905
vt 13.653100 20.726215
vt 0.747631 -19.643269
vt 14.149027 -19.477962
vn 0.9998 0.0000 0.0179
vn -0.0179 0.0000 0.9998
vn -0.9998 0.0000 -0.0179
vn 0.0179 0.0000 -0.9998
vn 0.0000 -1.0000 -0.0000
vn 0.0000 1.0000 -0.0000
g Cube.004_Cube.014_Material.031
usemtl Material.031
s off
f 33/51/21 34/52/21 36/53/21 35/54/21
f 35/54/22 36/53/22 40/55/22 39/56/22
f 39/56/23 40/55/23 38/57/23 37/58/23
f 37/58/24 38/57/24 34/59/24 33/60/24
f 35/61/25 39/56/25 37/58/25 33/62/25
f 40/55/26 36/63/26 34/64/26 38/57/26
